G04 #@! TF.GenerationSoftware,KiCad,Pcbnew,(5.0.0)*
G04 #@! TF.CreationDate,2018-07-25T17:19:14+09:00*
G04 #@! TF.ProjectId,kazzo_akizuki_nrom,6B617A7A6F5F616B697A756B695F6E72,rev?*
G04 #@! TF.SameCoordinates,Original*
G04 #@! TF.FileFunction,Soldermask,Bot*
G04 #@! TF.FilePolarity,Negative*
%FSLAX46Y46*%
G04 Gerber Fmt 4.6, Leading zero omitted, Abs format (unit mm)*
G04 Created by KiCad (PCBNEW (5.0.0)) date 07/25/18 17:19:14*
%MOMM*%
%LPD*%
G01*
G04 APERTURE LIST*
%ADD10R,1.400000X1.400000*%
%ADD11O,1.400000X1.400000*%
%ADD12R,1.924000X7.512000*%
%ADD13R,2.000000X2.000000*%
%ADD14O,2.000000X2.000000*%
%ADD15R,2.150000X2.150000*%
%ADD16C,2.150000*%
G04 APERTURE END LIST*
D10*
G04 #@! TO.C,J1*
X145860000Y-77406500D03*
D11*
X145860000Y-78676500D03*
X145860000Y-79946500D03*
G04 #@! TD*
D12*
G04 #@! TO.C,J2*
X168846000Y-116141500D03*
X166306000Y-116141500D03*
X163766000Y-116141500D03*
X161226000Y-116141500D03*
X158686000Y-116141500D03*
X156146000Y-116141500D03*
X153606000Y-116141500D03*
X151066000Y-116141500D03*
X148526000Y-116141500D03*
X145986000Y-116141500D03*
X143446000Y-116141500D03*
X140906000Y-116141500D03*
X138366000Y-116141500D03*
X135826000Y-116141500D03*
X133286000Y-116141500D03*
X130746000Y-116141500D03*
X128206000Y-116141500D03*
X125666000Y-116141500D03*
X123126000Y-116141500D03*
X120586000Y-116141500D03*
X118046000Y-116141500D03*
X115506000Y-116141500D03*
X112966000Y-116141500D03*
X110426000Y-116141500D03*
X107886000Y-116141500D03*
X105346000Y-116141500D03*
X102806000Y-116141500D03*
X100266000Y-116141500D03*
X97726000Y-116141500D03*
X95186000Y-116141500D03*
G04 #@! TD*
D13*
G04 #@! TO.C,U1*
X140652000Y-74168000D03*
D14*
X122872000Y-81788000D03*
X138112000Y-74168000D03*
X125412000Y-81788000D03*
X135572000Y-74168000D03*
X127952000Y-81788000D03*
X133032000Y-74168000D03*
X130492000Y-81788000D03*
X130492000Y-74168000D03*
X133032000Y-81788000D03*
X127952000Y-74168000D03*
X135572000Y-81788000D03*
X125412000Y-74168000D03*
X138112000Y-81788000D03*
X122872000Y-74168000D03*
X140652000Y-81788000D03*
G04 #@! TD*
D15*
G04 #@! TO.C,U2*
X132016000Y-90043000D03*
D16*
X129476000Y-90043000D03*
X134556000Y-90043000D03*
X137096000Y-90043000D03*
X129476000Y-87503000D03*
X126936000Y-87503000D03*
X132016000Y-87503000D03*
X134556000Y-87503000D03*
X126936000Y-90043000D03*
X126936000Y-92583000D03*
X126936000Y-95123000D03*
X126936000Y-97663000D03*
X124396000Y-90043000D03*
X124396000Y-92583000D03*
X124396000Y-95123000D03*
X124396000Y-97663000D03*
X124396000Y-100203000D03*
X126936000Y-100203000D03*
X129476000Y-100203000D03*
X132016000Y-100203000D03*
X134556000Y-100203000D03*
X126936000Y-102743000D03*
X129476000Y-102743000D03*
X132016000Y-102743000D03*
X134556000Y-102743000D03*
X134556000Y-97663000D03*
X134556000Y-95123000D03*
X134556000Y-92583000D03*
X134556000Y-90043000D03*
X137096000Y-100203000D03*
X137096000Y-97663000D03*
X137096000Y-95123000D03*
X137096000Y-92583000D03*
X137096000Y-90043000D03*
G04 #@! TD*
D15*
G04 #@! TO.C,U3*
X105346000Y-90106500D03*
D16*
X102806000Y-90106500D03*
X107886000Y-90106500D03*
X110426000Y-90106500D03*
X102806000Y-87566500D03*
X100266000Y-87566500D03*
X105346000Y-87566500D03*
X107886000Y-87566500D03*
X100266000Y-90106500D03*
X100266000Y-92646500D03*
X100266000Y-95186500D03*
X100266000Y-97726500D03*
X97726000Y-90106500D03*
X97726000Y-92646500D03*
X97726000Y-95186500D03*
X97726000Y-97726500D03*
X97726000Y-100266500D03*
X100266000Y-100266500D03*
X102806000Y-100266500D03*
X105346000Y-100266500D03*
X107886000Y-100266500D03*
X100266000Y-102806500D03*
X102806000Y-102806500D03*
X105346000Y-102806500D03*
X107886000Y-102806500D03*
X107886000Y-97726500D03*
X107886000Y-95186500D03*
X107886000Y-92646500D03*
X107886000Y-90106500D03*
X110426000Y-100266500D03*
X110426000Y-97726500D03*
X110426000Y-95186500D03*
X110426000Y-92646500D03*
X110426000Y-90106500D03*
G04 #@! TD*
D13*
G04 #@! TO.C,U4*
X111570000Y-74168000D03*
D14*
X96330000Y-81788000D03*
X109030000Y-74168000D03*
X98870000Y-81788000D03*
X106490000Y-74168000D03*
X101410000Y-81788000D03*
X103950000Y-74168000D03*
X103950000Y-81788000D03*
X101410000Y-74168000D03*
X106490000Y-81788000D03*
X98870000Y-74168000D03*
X109030000Y-81788000D03*
X96330000Y-74168000D03*
X111570000Y-81788000D03*
G04 #@! TD*
M02*
