G04 #@! TF.GenerationSoftware,KiCad,Pcbnew,(5.0.0)*
G04 #@! TF.CreationDate,2018-07-25T17:19:13+09:00*
G04 #@! TF.ProjectId,kazzo_akizuki_nrom,6B617A7A6F5F616B697A756B695F6E72,rev?*
G04 #@! TF.SameCoordinates,Original*
G04 #@! TF.FileFunction,Copper,L2,Bot,Signal*
G04 #@! TF.FilePolarity,Positive*
%FSLAX46Y46*%
G04 Gerber Fmt 4.6, Leading zero omitted, Abs format (unit mm)*
G04 Created by KiCad (PCBNEW (5.0.0)) date 07/25/18 17:19:13*
%MOMM*%
%LPD*%
G01*
G04 APERTURE LIST*
G04 #@! TA.AperFunction,ComponentPad*
%ADD10R,1.000000X1.000000*%
G04 #@! TD*
G04 #@! TA.AperFunction,ComponentPad*
%ADD11O,1.000000X1.000000*%
G04 #@! TD*
G04 #@! TA.AperFunction,SMDPad,CuDef*
%ADD12R,1.524000X7.112000*%
G04 #@! TD*
G04 #@! TA.AperFunction,ComponentPad*
%ADD13R,1.600000X1.600000*%
G04 #@! TD*
G04 #@! TA.AperFunction,ComponentPad*
%ADD14O,1.600000X1.600000*%
G04 #@! TD*
G04 #@! TA.AperFunction,ComponentPad*
%ADD15R,1.750000X1.750000*%
G04 #@! TD*
G04 #@! TA.AperFunction,ComponentPad*
%ADD16C,1.750000*%
G04 #@! TD*
G04 #@! TA.AperFunction,ViaPad*
%ADD17C,0.600000*%
G04 #@! TD*
G04 #@! TA.AperFunction,Conductor*
%ADD18C,0.250000*%
G04 #@! TD*
G04 #@! TA.AperFunction,Conductor*
%ADD19C,0.500000*%
G04 #@! TD*
G04 APERTURE END LIST*
D10*
G04 #@! TO.P,J1,1*
G04 #@! TO.N,PA10*
X145860000Y-77406500D03*
D11*
G04 #@! TO.P,J1,2*
G04 #@! TO.N,VRAMA10*
X145860000Y-78676500D03*
G04 #@! TO.P,J1,3*
G04 #@! TO.N,PA11*
X145860000Y-79946500D03*
G04 #@! TD*
D12*
G04 #@! TO.P,J2,1*
G04 #@! TO.N,PD4*
X168846000Y-116141500D03*
G04 #@! TO.P,J2,2*
G04 #@! TO.N,PD5*
X166306000Y-116141500D03*
G04 #@! TO.P,J2,3*
G04 #@! TO.N,PD6*
X163766000Y-116141500D03*
G04 #@! TO.P,J2,4*
G04 #@! TO.N,PD7*
X161226000Y-116141500D03*
G04 #@! TO.P,J2,5*
G04 #@! TO.N,PA13*
X158686000Y-116141500D03*
G04 #@! TO.P,J2,6*
G04 #@! TO.N,PA12*
X156146000Y-116141500D03*
G04 #@! TO.P,J2,7*
G04 #@! TO.N,PA11*
X153606000Y-116141500D03*
G04 #@! TO.P,J2,8*
G04 #@! TO.N,PA10*
X151066000Y-116141500D03*
G04 #@! TO.P,J2,9*
G04 #@! TO.N,PA9*
X148526000Y-116141500D03*
G04 #@! TO.P,J2,10*
G04 #@! TO.N,PA8*
X145986000Y-116141500D03*
G04 #@! TO.P,J2,11*
G04 #@! TO.N,PA7*
X143446000Y-116141500D03*
G04 #@! TO.P,J2,12*
G04 #@! TO.N,/PA13*
X140906000Y-116141500D03*
G04 #@! TO.P,J2,13*
X138366000Y-116141500D03*
G04 #@! TO.P,J2,14*
G04 #@! TO.N,WE*
X135826000Y-116141500D03*
G04 #@! TO.P,J2,15*
G04 #@! TO.N,IN*
X133286000Y-116141500D03*
G04 #@! TO.P,J2,16*
X130746000Y-116141500D03*
G04 #@! TO.P,J2,17*
G04 #@! TO.N,ROMSEL*
X128206000Y-116141500D03*
G04 #@! TO.P,J2,18*
G04 #@! TO.N,D0*
X125666000Y-116141500D03*
G04 #@! TO.P,J2,19*
G04 #@! TO.N,D1*
X123126000Y-116141500D03*
G04 #@! TO.P,J2,20*
G04 #@! TO.N,D2*
X120586000Y-116141500D03*
G04 #@! TO.P,J2,21*
G04 #@! TO.N,D3*
X118046000Y-116141500D03*
G04 #@! TO.P,J2,22*
G04 #@! TO.N,D4*
X115506000Y-116141500D03*
G04 #@! TO.P,J2,23*
G04 #@! TO.N,D5*
X112966000Y-116141500D03*
G04 #@! TO.P,J2,24*
G04 #@! TO.N,D6*
X110426000Y-116141500D03*
G04 #@! TO.P,J2,25*
G04 #@! TO.N,D7*
X107886000Y-116141500D03*
G04 #@! TO.P,J2,26*
G04 #@! TO.N,A14*
X105346000Y-116141500D03*
G04 #@! TO.P,J2,27*
G04 #@! TO.N,A13*
X102806000Y-116141500D03*
G04 #@! TO.P,J2,28*
G04 #@! TO.N,A12*
X100266000Y-116141500D03*
G04 #@! TO.P,J2,29*
G04 #@! TO.N,F2*
X97726000Y-116141500D03*
G04 #@! TO.P,J2,30*
G04 #@! TO.N,VCC*
X95186000Y-116141500D03*
G04 #@! TD*
D13*
G04 #@! TO.P,U1,1*
G04 #@! TO.N,VCC*
X140652000Y-74168000D03*
D14*
G04 #@! TO.P,U1,9*
G04 #@! TO.N,RW*
X122872000Y-81788000D03*
G04 #@! TO.P,U1,2*
G04 #@! TO.N,CK*
X138112000Y-74168000D03*
G04 #@! TO.P,U1,10*
G04 #@! TO.N,GND*
X125412000Y-81788000D03*
G04 #@! TO.P,U1,3*
G04 #@! TO.N,D0*
X135572000Y-74168000D03*
G04 #@! TO.P,U1,11*
G04 #@! TO.N,Net-(JP2-Pad1)*
X127952000Y-81788000D03*
G04 #@! TO.P,U1,4*
G04 #@! TO.N,D1*
X133032000Y-74168000D03*
G04 #@! TO.P,U1,12*
G04 #@! TO.N,Net-(JP1-Pad1)*
X130492000Y-81788000D03*
G04 #@! TO.P,U1,5*
G04 #@! TO.N,D4*
X130492000Y-74168000D03*
G04 #@! TO.P,U1,13*
G04 #@! TO.N,Net-(U1-Pad13)*
X133032000Y-81788000D03*
G04 #@! TO.P,U1,6*
G04 #@! TO.N,D5*
X127952000Y-74168000D03*
G04 #@! TO.P,U1,14*
G04 #@! TO.N,Net-(U1-Pad14)*
X135572000Y-81788000D03*
G04 #@! TO.P,U1,7*
G04 #@! TO.N,GND*
X125412000Y-74168000D03*
G04 #@! TO.P,U1,15*
G04 #@! TO.N,N/C*
X138112000Y-81788000D03*
G04 #@! TO.P,U1,8*
G04 #@! TO.N,GND*
X122872000Y-74168000D03*
G04 #@! TO.P,U1,16*
G04 #@! TO.N,VCC*
X140652000Y-81788000D03*
G04 #@! TD*
D15*
G04 #@! TO.P,U2,1*
G04 #@! TO.N,VCC*
X132016000Y-90043000D03*
D16*
G04 #@! TO.P,U2,3*
G04 #@! TO.N,GND*
X129476000Y-90043000D03*
G04 #@! TO.P,U2,31*
G04 #@! TO.N,WE*
X134556000Y-90043000D03*
G04 #@! TO.P,U2,29*
G04 #@! TO.N,Net-(U1-Pad13)*
X137096000Y-90043000D03*
G04 #@! TO.P,U2,2*
G04 #@! TO.N,GND*
X129476000Y-87503000D03*
G04 #@! TO.P,U2,4*
G04 #@! TO.N,PA12*
X126936000Y-87503000D03*
G04 #@! TO.P,U2,32*
G04 #@! TO.N,VCC*
X132016000Y-87503000D03*
G04 #@! TO.P,U2,30*
G04 #@! TO.N,GND*
X134556000Y-87503000D03*
G04 #@! TO.P,U2,6*
G04 #@! TO.N,PA6*
X126936000Y-90043000D03*
G04 #@! TO.P,U2,8*
G04 #@! TO.N,PA4*
X126936000Y-92583000D03*
G04 #@! TO.P,U2,10*
G04 #@! TO.N,PA2*
X126936000Y-95123000D03*
G04 #@! TO.P,U2,12*
G04 #@! TO.N,PA0*
X126936000Y-97663000D03*
G04 #@! TO.P,U2,5*
G04 #@! TO.N,PA7*
X124396000Y-90043000D03*
G04 #@! TO.P,U2,7*
G04 #@! TO.N,PA5*
X124396000Y-92583000D03*
G04 #@! TO.P,U2,9*
G04 #@! TO.N,PA3*
X124396000Y-95123000D03*
G04 #@! TO.P,U2,11*
G04 #@! TO.N,PA1*
X124396000Y-97663000D03*
G04 #@! TO.P,U2,13*
G04 #@! TO.N,PD0*
X124396000Y-100203000D03*
G04 #@! TO.P,U2,15*
G04 #@! TO.N,PD2*
X126936000Y-100203000D03*
G04 #@! TO.P,U2,17*
G04 #@! TO.N,PD3*
X129476000Y-100203000D03*
G04 #@! TO.P,U2,19*
G04 #@! TO.N,PD5*
X132016000Y-100203000D03*
G04 #@! TO.P,U2,22*
G04 #@! TO.N,PA13*
X134556000Y-100203000D03*
G04 #@! TO.P,U2,14*
G04 #@! TO.N,PD1*
X126936000Y-102743000D03*
G04 #@! TO.P,U2,16*
G04 #@! TO.N,GND*
X129476000Y-102743000D03*
G04 #@! TO.P,U2,18*
G04 #@! TO.N,PD4*
X132016000Y-102743000D03*
G04 #@! TO.P,U2,20*
G04 #@! TO.N,PD6*
X134556000Y-102743000D03*
G04 #@! TO.P,U2,24*
G04 #@! TO.N,RD*
X134556000Y-97663000D03*
G04 #@! TO.P,U2,26*
G04 #@! TO.N,PA9*
X134556000Y-95123000D03*
G04 #@! TO.P,U2,28*
G04 #@! TO.N,Net-(U1-Pad14)*
X134556000Y-92583000D03*
G04 #@! TO.P,U2,31*
G04 #@! TO.N,WE*
X134556000Y-90043000D03*
G04 #@! TO.P,U2,21*
G04 #@! TO.N,PD7*
X137096000Y-100203000D03*
G04 #@! TO.P,U2,23*
G04 #@! TO.N,PA10*
X137096000Y-97663000D03*
G04 #@! TO.P,U2,25*
G04 #@! TO.N,PA11*
X137096000Y-95123000D03*
G04 #@! TO.P,U2,27*
G04 #@! TO.N,PA8*
X137096000Y-92583000D03*
G04 #@! TO.P,U2,29*
G04 #@! TO.N,Net-(U1-Pad13)*
X137096000Y-90043000D03*
G04 #@! TD*
D15*
G04 #@! TO.P,U3,1*
G04 #@! TO.N,VCC*
X105346000Y-90106500D03*
D16*
G04 #@! TO.P,U3,3*
G04 #@! TO.N,GND*
X102806000Y-90106500D03*
G04 #@! TO.P,U3,31*
G04 #@! TO.N,RW*
X107886000Y-90106500D03*
G04 #@! TO.P,U3,29*
G04 #@! TO.N,A14*
X110426000Y-90106500D03*
G04 #@! TO.P,U3,2*
G04 #@! TO.N,GND*
X102806000Y-87566500D03*
G04 #@! TO.P,U3,4*
G04 #@! TO.N,A12*
X100266000Y-87566500D03*
G04 #@! TO.P,U3,32*
G04 #@! TO.N,VCC*
X105346000Y-87566500D03*
G04 #@! TO.P,U3,30*
G04 #@! TO.N,GND*
X107886000Y-87566500D03*
G04 #@! TO.P,U3,6*
G04 #@! TO.N,A6*
X100266000Y-90106500D03*
G04 #@! TO.P,U3,8*
G04 #@! TO.N,A4*
X100266000Y-92646500D03*
G04 #@! TO.P,U3,10*
G04 #@! TO.N,A2*
X100266000Y-95186500D03*
G04 #@! TO.P,U3,12*
G04 #@! TO.N,A0*
X100266000Y-97726500D03*
G04 #@! TO.P,U3,5*
G04 #@! TO.N,A7*
X97726000Y-90106500D03*
G04 #@! TO.P,U3,7*
G04 #@! TO.N,A5*
X97726000Y-92646500D03*
G04 #@! TO.P,U3,9*
G04 #@! TO.N,A3*
X97726000Y-95186500D03*
G04 #@! TO.P,U3,11*
G04 #@! TO.N,A1*
X97726000Y-97726500D03*
G04 #@! TO.P,U3,13*
G04 #@! TO.N,D0*
X97726000Y-100266500D03*
G04 #@! TO.P,U3,15*
G04 #@! TO.N,D2*
X100266000Y-100266500D03*
G04 #@! TO.P,U3,17*
G04 #@! TO.N,D3*
X102806000Y-100266500D03*
G04 #@! TO.P,U3,19*
G04 #@! TO.N,D5*
X105346000Y-100266500D03*
G04 #@! TO.P,U3,22*
G04 #@! TO.N,ROMSEL*
X107886000Y-100266500D03*
G04 #@! TO.P,U3,14*
G04 #@! TO.N,D1*
X100266000Y-102806500D03*
G04 #@! TO.P,U3,16*
G04 #@! TO.N,GND*
X102806000Y-102806500D03*
G04 #@! TO.P,U3,18*
G04 #@! TO.N,D4*
X105346000Y-102806500D03*
G04 #@! TO.P,U3,20*
G04 #@! TO.N,D6*
X107886000Y-102806500D03*
G04 #@! TO.P,U3,24*
G04 #@! TO.N,PRGOE*
X107886000Y-97726500D03*
G04 #@! TO.P,U3,26*
G04 #@! TO.N,A9*
X107886000Y-95186500D03*
G04 #@! TO.P,U3,28*
G04 #@! TO.N,A13*
X107886000Y-92646500D03*
G04 #@! TO.P,U3,31*
G04 #@! TO.N,RW*
X107886000Y-90106500D03*
G04 #@! TO.P,U3,21*
G04 #@! TO.N,D7*
X110426000Y-100266500D03*
G04 #@! TO.P,U3,23*
G04 #@! TO.N,A10*
X110426000Y-97726500D03*
G04 #@! TO.P,U3,25*
G04 #@! TO.N,A11*
X110426000Y-95186500D03*
G04 #@! TO.P,U3,27*
G04 #@! TO.N,A8*
X110426000Y-92646500D03*
G04 #@! TO.P,U3,29*
G04 #@! TO.N,A14*
X110426000Y-90106500D03*
G04 #@! TD*
D13*
G04 #@! TO.P,U4,1*
G04 #@! TO.N,RW*
X111570000Y-74168000D03*
D14*
G04 #@! TO.P,U4,8*
G04 #@! TO.N,CK*
X96330000Y-81788000D03*
G04 #@! TO.P,U4,2*
G04 #@! TO.N,RW*
X109030000Y-74168000D03*
G04 #@! TO.P,U4,9*
G04 #@! TO.N,F2*
X98870000Y-81788000D03*
G04 #@! TO.P,U4,3*
G04 #@! TO.N,PRGOE*
X106490000Y-74168000D03*
G04 #@! TO.P,U4,10*
G04 #@! TO.N,Net-(U4-Pad10)*
X101410000Y-81788000D03*
G04 #@! TO.P,U4,4*
G04 #@! TO.N,PRGOE*
X103950000Y-74168000D03*
G04 #@! TO.P,U4,11*
G04 #@! TO.N,Net-(U4-Pad10)*
X103950000Y-81788000D03*
G04 #@! TO.P,U4,5*
G04 #@! TO.N,PRGOE*
X101410000Y-74168000D03*
G04 #@! TO.P,U4,12*
G04 #@! TO.N,ROMSEL*
X106490000Y-81788000D03*
G04 #@! TO.P,U4,6*
G04 #@! TO.N,N/C*
X98870000Y-74168000D03*
G04 #@! TO.P,U4,13*
G04 #@! TO.N,ROMSEL*
X109030000Y-81788000D03*
G04 #@! TO.P,U4,7*
G04 #@! TO.N,GND*
X96330000Y-74168000D03*
G04 #@! TO.P,U4,14*
G04 #@! TO.N,VCC*
X111570000Y-81788000D03*
G04 #@! TD*
D17*
G04 #@! TO.N,PA10*
X152786800Y-106450700D03*
G04 #@! TO.N,PA11*
X151043600Y-111985400D03*
G04 #@! TO.N,PD6*
X139307100Y-101231300D03*
G04 #@! TO.N,PA12*
X152345000Y-105415000D03*
X128936500Y-83811600D03*
G04 #@! TO.N,PA9*
X146801600Y-110583900D03*
G04 #@! TO.N,PA8*
X145857600Y-107456900D03*
G04 #@! TO.N,D1*
X114763000Y-102926500D03*
G04 #@! TO.N,D4*
X111390800Y-103822000D03*
G04 #@! TO.N,D5*
X110898200Y-103096100D03*
G04 #@! TO.N,D7*
X109438500Y-102615700D03*
G04 #@! TO.N,A14*
X109142100Y-103429400D03*
G04 #@! TO.N,PD3*
X151905000Y-106672700D03*
G04 #@! TO.N,PD1*
X151684200Y-108149700D03*
G04 #@! TO.N,PA4*
X136360300Y-106658300D03*
G04 #@! TO.N,PA5*
X139812200Y-110642500D03*
G04 #@! TO.N,RD*
X132957200Y-104778000D03*
G04 #@! TO.N,GND*
X108590900Y-107161000D03*
G04 #@! TO.N,RW*
X125828100Y-108809800D03*
G04 #@! TO.N,A6*
X105122200Y-111223100D03*
G04 #@! TO.N,A7*
X104254200Y-111481000D03*
G04 #@! TO.N,A8*
X113160300Y-110964800D03*
G04 #@! TO.N,A9*
X112324200Y-110643100D03*
G04 #@! TD*
D18*
G04 #@! TO.N,PA10*
X150429000Y-112710500D02*
X151066000Y-116141500D01*
X150429000Y-112585500D02*
X150429000Y-112710500D01*
X150427600Y-112565500D02*
X150426200Y-112559000D01*
X150429000Y-112578800D02*
X150427600Y-112565500D01*
X150429000Y-112585500D02*
X150429000Y-112578800D01*
X150335000Y-112139300D02*
X150426200Y-112559000D01*
X150305400Y-112002800D02*
X150335000Y-112139300D01*
X150351800Y-111727200D02*
X150305400Y-112002800D01*
X150424500Y-111607900D02*
X150351800Y-111727200D01*
X152303300Y-108527200D02*
X150424500Y-111607900D01*
X152380700Y-108360600D02*
X152393400Y-108300500D01*
X152335300Y-108474800D02*
X152380700Y-108360600D01*
X152303300Y-108527200D02*
X152335300Y-108474800D01*
X152786800Y-106450700D02*
X152393400Y-108300500D01*
X138212900Y-95788500D02*
X137096000Y-97663000D01*
X138212900Y-95788500D02*
X138235500Y-95748900D01*
X146670800Y-80391900D02*
X138235500Y-95748900D01*
X146785100Y-80063300D02*
X146785100Y-79946500D01*
X146727000Y-80289500D02*
X146785100Y-80063300D01*
X146670800Y-80391900D02*
X146727000Y-80289500D01*
X146785100Y-78676500D02*
X146785100Y-79946500D01*
X146731600Y-78346700D02*
X146679600Y-78247400D01*
X146785100Y-78564400D02*
X146731600Y-78346700D01*
X146785100Y-78676500D02*
X146785100Y-78564400D01*
X146470700Y-77848500D02*
X146679600Y-78247400D01*
X146394900Y-77781500D02*
X146360000Y-77781500D01*
X146454500Y-77817600D02*
X146394900Y-77781500D01*
X146470700Y-77848500D02*
X146454500Y-77817600D01*
X146235000Y-77781500D02*
X146360000Y-77781500D01*
X145860000Y-77406500D02*
X146235000Y-77781500D01*
G04 #@! TO.N,PA11*
X138732200Y-93446800D02*
X145860000Y-79946500D01*
X138660700Y-93582200D02*
X138732200Y-93446800D01*
X138475100Y-93825800D02*
X138660700Y-93582200D01*
X138363600Y-93930700D02*
X138475100Y-93825800D01*
X137096000Y-95123000D02*
X138363600Y-93930700D01*
X151915800Y-112169600D02*
X151043600Y-111985400D01*
X151953800Y-112177600D02*
X151915800Y-112169600D01*
X152025600Y-112207100D02*
X151953800Y-112177600D01*
X152058200Y-112228100D02*
X152025600Y-112207100D01*
X152776300Y-112690600D02*
X152058200Y-112228100D01*
X152826000Y-112710500D02*
X152844000Y-112710500D01*
X152791400Y-112700400D02*
X152826000Y-112710500D01*
X152776300Y-112690600D02*
X152791400Y-112700400D01*
X152969000Y-112710500D02*
X152844000Y-112710500D01*
X153606000Y-116141500D02*
X152969000Y-112710500D01*
G04 #@! TO.N,PD4*
X168209000Y-112710500D02*
X168846000Y-116141500D01*
X168209000Y-112585500D02*
X168209000Y-112710500D01*
X168200000Y-112535800D02*
X168191200Y-112521300D01*
X168209000Y-112568500D02*
X168200000Y-112535800D01*
X168209000Y-112585500D02*
X168209000Y-112568500D01*
X146724700Y-76688000D02*
X168191200Y-112521300D01*
X146472100Y-76481400D02*
X146360000Y-76481400D01*
X146667100Y-76591900D02*
X146472100Y-76481400D01*
X146724700Y-76688000D02*
X146667100Y-76591900D01*
X145360000Y-76481400D02*
X146360000Y-76481400D01*
X145015800Y-76625500D02*
X144966700Y-76745100D01*
X145230700Y-76481400D02*
X145015800Y-76625500D01*
X145360000Y-76481400D02*
X145230700Y-76481400D01*
X138271000Y-93065100D02*
X144966700Y-76745100D01*
X138124300Y-93422600D02*
X138271000Y-93065100D01*
X137482400Y-93853000D02*
X138124300Y-93422600D01*
X137096000Y-93853000D02*
X137482400Y-93853000D01*
X134556000Y-93853000D02*
X137096000Y-93853000D01*
X133581400Y-94232300D02*
X133420100Y-94555000D01*
X134195200Y-93853000D02*
X133581400Y-94232300D01*
X134556000Y-93853000D02*
X134195200Y-93853000D01*
X130880100Y-99635000D02*
X133420100Y-94555000D01*
X130756200Y-100560900D02*
X130916100Y-100838000D01*
X130737000Y-99921200D02*
X130756200Y-100560900D01*
X130880100Y-99635000D02*
X130737000Y-99921200D01*
X132016000Y-102743000D02*
X130916100Y-100838000D01*
G04 #@! TO.N,PD5*
X165669000Y-112710500D02*
X166306000Y-116141500D01*
X165544000Y-112710500D02*
X165669000Y-112710500D01*
X165523000Y-112710500D02*
X165544000Y-112710500D01*
X165483300Y-112696800D02*
X165523000Y-112710500D01*
X165466800Y-112683800D02*
X165483300Y-112696800D01*
X154593000Y-104149400D02*
X165466800Y-112683800D01*
X154593000Y-104149400D02*
X154573900Y-104134500D01*
X153796100Y-103534300D02*
X154573900Y-104134500D01*
X153185500Y-103180700D02*
X152957300Y-103119900D01*
X153609100Y-103390000D02*
X153185500Y-103180700D01*
X153796100Y-103534300D02*
X153609100Y-103390000D01*
X137423300Y-98975900D02*
X152957300Y-103119900D01*
X137178900Y-98933000D02*
X137096000Y-98933000D01*
X137343200Y-98954500D02*
X137178900Y-98933000D01*
X137423300Y-98975900D02*
X137343200Y-98954500D01*
X136843400Y-98933000D02*
X137096000Y-98933000D01*
X136376600Y-98739700D02*
X136843400Y-98933000D01*
X136019300Y-98382400D02*
X136376600Y-98739700D01*
X135826000Y-97915600D02*
X136019300Y-98382400D01*
X135826000Y-97663000D02*
X135826000Y-97915600D01*
X133583100Y-96731400D02*
X133398500Y-97140500D01*
X134384500Y-96327000D02*
X133583100Y-96731400D01*
X135262000Y-96515900D02*
X134384500Y-96327000D01*
X135826000Y-97214200D02*
X135262000Y-96515900D01*
X135826000Y-97663000D02*
X135826000Y-97214200D01*
X132016000Y-100203000D02*
X133398500Y-97140500D01*
G04 #@! TO.N,PD6*
X163129000Y-112710500D02*
X163766000Y-116141500D01*
X163129000Y-112585500D02*
X163129000Y-112710500D01*
X163107300Y-112510200D02*
X163087400Y-112492400D01*
X163129000Y-112558800D02*
X163107300Y-112510200D01*
X163129000Y-112585500D02*
X163129000Y-112558800D01*
X154372100Y-104681700D02*
X163087400Y-112492400D01*
X154272400Y-104596700D02*
X154237900Y-104570000D01*
X154339600Y-104652600D02*
X154272400Y-104596700D01*
X154372100Y-104681700D02*
X154339600Y-104652600D01*
X153460000Y-103969900D02*
X154237900Y-104570000D01*
X152882800Y-103656900D02*
X152666000Y-103618200D01*
X153285600Y-103835300D02*
X152882800Y-103656900D01*
X153460000Y-103969900D02*
X153285600Y-103835300D01*
X139307100Y-101231300D02*
X152666000Y-103618200D01*
G04 #@! TO.N,PD7*
X160589000Y-112710500D02*
X161226000Y-116141500D01*
X160589000Y-112585500D02*
X160589000Y-112710500D01*
X160572900Y-112520000D02*
X160557800Y-112502800D01*
X160589000Y-112562700D02*
X160572900Y-112520000D01*
X160589000Y-112585500D02*
X160589000Y-112562700D01*
X154155800Y-105243400D02*
X160557800Y-112502800D01*
X153970900Y-105058800D02*
X153901800Y-105005600D01*
X154098100Y-105178000D02*
X153970900Y-105058800D01*
X154155800Y-105243400D02*
X154098100Y-105178000D01*
X153124000Y-104405400D02*
X153901800Y-105005600D01*
X152709000Y-104182700D02*
X152553100Y-104156900D01*
X152998900Y-104308800D02*
X152709000Y-104182700D01*
X153124000Y-104405400D02*
X152998900Y-104308800D01*
X139188800Y-101946700D02*
X152553100Y-104156900D01*
X139085600Y-101929600D02*
X139188800Y-101946700D01*
X138897200Y-101838400D02*
X139085600Y-101929600D01*
X138819700Y-101768100D02*
X138897200Y-101838400D01*
X137096000Y-100203000D02*
X138819700Y-101768100D01*
G04 #@! TO.N,PA13*
X158049000Y-112710500D02*
X158686000Y-116141500D01*
X158049000Y-112585500D02*
X158049000Y-112710500D01*
X158039500Y-112534700D02*
X158030400Y-112519900D01*
X158049000Y-112568100D02*
X158039500Y-112534700D01*
X158049000Y-112585500D02*
X158049000Y-112568100D01*
X153872000Y-105781000D02*
X158030400Y-112519900D01*
X153657100Y-105511500D02*
X153565800Y-105441100D01*
X153811400Y-105682900D02*
X153657100Y-105511500D01*
X153872000Y-105781000D02*
X153811400Y-105682900D01*
X152787900Y-104840900D02*
X153565800Y-105441100D01*
X152552000Y-104714300D02*
X152463300Y-104699600D01*
X152716700Y-104786000D02*
X152552000Y-104714300D01*
X152787900Y-104840900D02*
X152716700Y-104786000D01*
X139099000Y-102489400D02*
X152463300Y-104699600D01*
X139016700Y-102475800D02*
X139099000Y-102489400D01*
X138857200Y-102427400D02*
X139016700Y-102475800D01*
X138781200Y-102393000D02*
X138857200Y-102427400D01*
X136559800Y-101387400D02*
X138781200Y-102393000D01*
X136526500Y-101372400D02*
X136559800Y-101387400D01*
X136461900Y-101338600D02*
X136526500Y-101372400D01*
X136430500Y-101319900D02*
X136461900Y-101338600D01*
X134556000Y-100203000D02*
X136430500Y-101319900D01*
G04 #@! TO.N,PA12*
X126936000Y-87503000D02*
X128936500Y-83811600D01*
X155509000Y-112710500D02*
X156146000Y-116141500D01*
X155509000Y-112585500D02*
X155509000Y-112710500D01*
X155506000Y-112556600D02*
X155503000Y-112547300D01*
X155509000Y-112575800D02*
X155506000Y-112556600D01*
X155509000Y-112585500D02*
X155509000Y-112575800D01*
X153477300Y-106229300D02*
X155503000Y-112547300D01*
X153243800Y-105869200D02*
X153113800Y-105803500D01*
X153432800Y-106090600D02*
X153243800Y-105869200D01*
X153477300Y-106229300D02*
X153432800Y-106090600D01*
X152345000Y-105415000D02*
X153113800Y-105803500D01*
G04 #@! TO.N,PA9*
X147889000Y-112710500D02*
X148526000Y-116141500D01*
X147889000Y-112585500D02*
X147889000Y-112710500D01*
X147881100Y-112539000D02*
X147873400Y-112525100D01*
X147889000Y-112569700D02*
X147881100Y-112539000D01*
X147889000Y-112585500D02*
X147889000Y-112569700D01*
X146801600Y-110583900D02*
X147873400Y-112525100D01*
G04 #@! TO.N,PA8*
X145857600Y-112710500D02*
X145986000Y-116141500D01*
X145857600Y-112585500D02*
X145857600Y-112710500D01*
X145857600Y-107456900D02*
X145857600Y-112585500D01*
G04 #@! TO.N,PA7*
X142809000Y-112710500D02*
X143446000Y-116141500D01*
X142809000Y-112585500D02*
X142809000Y-112710500D01*
X142763600Y-112481400D02*
X142726500Y-112468000D01*
X142809000Y-112546000D02*
X142763600Y-112481400D01*
X142809000Y-112585500D02*
X142809000Y-112546000D01*
X139565500Y-111324300D02*
X142726500Y-112468000D01*
X139546000Y-111317300D02*
X139565500Y-111324300D01*
X139508000Y-111301000D02*
X139546000Y-111317300D01*
X139489500Y-111291800D02*
X139508000Y-111301000D01*
X131655100Y-107397700D02*
X139489500Y-111291800D01*
X131565100Y-107351100D02*
X131655100Y-107397700D01*
X126055600Y-104370300D02*
X131565100Y-107351100D01*
X125937600Y-104306500D02*
X126055600Y-104370300D01*
X125722500Y-104146100D02*
X125937600Y-104306500D01*
X125627700Y-104051300D02*
X125722500Y-104146100D01*
X123087700Y-101511300D02*
X125627700Y-104051300D01*
X122827500Y-101251100D02*
X123087700Y-101511300D01*
X122545800Y-100571000D02*
X122827500Y-101251100D01*
X122545800Y-100203000D02*
X122545800Y-100571000D01*
X122545800Y-95123000D02*
X122545800Y-100203000D01*
X122545800Y-95021900D02*
X122545800Y-95123000D01*
X122567800Y-94821000D02*
X122545800Y-95021900D01*
X122589700Y-94722300D02*
X122567800Y-94821000D01*
X123126800Y-92301400D02*
X122589700Y-94722300D01*
X123149200Y-92199900D02*
X123126800Y-92301400D01*
X123225900Y-92006800D02*
X123149200Y-92199900D01*
X123279100Y-91917500D02*
X123225900Y-92006800D01*
X124396000Y-90043000D02*
X123279100Y-91917500D01*
G04 #@! TO.N,/PA13*
X140269000Y-116141500D02*
X140906000Y-116141500D01*
X140144000Y-116141500D02*
X140269000Y-116141500D01*
X139128000Y-116141500D02*
X140144000Y-116141500D01*
X139003000Y-116141500D02*
X139128000Y-116141500D01*
X138366000Y-116141500D02*
X139003000Y-116141500D01*
G04 #@! TO.N,WE*
X135189000Y-112710500D02*
X135826000Y-116141500D01*
X135189000Y-112585500D02*
X135189000Y-112710500D01*
X135164700Y-112506200D02*
X135142700Y-112488400D01*
X135189000Y-112557200D02*
X135164700Y-112506200D01*
X135189000Y-112585500D02*
X135189000Y-112557200D01*
X125424200Y-104607300D02*
X135142700Y-112488400D01*
X125375600Y-104568100D02*
X125424200Y-104607300D01*
X125282900Y-104484500D02*
X125375600Y-104568100D01*
X125238700Y-104440300D02*
X125282900Y-104484500D01*
X122698700Y-101900300D02*
X125238700Y-104440300D01*
X122361100Y-101562700D02*
X122698700Y-101900300D01*
X121995700Y-100680400D02*
X122361100Y-101562700D01*
X121995700Y-100203000D02*
X121995700Y-100680400D01*
X121995700Y-95123000D02*
X121995700Y-100203000D01*
X121995700Y-94991900D02*
X121995700Y-95123000D01*
X122024300Y-94731200D02*
X121995700Y-94991900D01*
X122052700Y-94603200D02*
X122024300Y-94731200D01*
X122589700Y-92182300D02*
X122052700Y-94603200D01*
X122594700Y-92160400D02*
X122589700Y-92182300D01*
X123159600Y-89752900D02*
X122594700Y-92160400D01*
X123270100Y-89282000D02*
X123159600Y-89752900D01*
X124061500Y-88725800D02*
X123270100Y-89282000D01*
X125022500Y-88837000D02*
X124061500Y-88725800D01*
X125666000Y-89559300D02*
X125022500Y-88837000D01*
X125666000Y-90043000D02*
X125666000Y-89559300D01*
X126683400Y-91313000D02*
X126936000Y-91313000D01*
X126216600Y-91119700D02*
X126683400Y-91313000D01*
X125859300Y-90762400D02*
X126216600Y-91119700D01*
X125666000Y-90295600D02*
X125859300Y-90762400D01*
X125666000Y-90043000D02*
X125666000Y-90295600D01*
X126951100Y-91313100D02*
X126936000Y-91313000D01*
X129460500Y-91343000D02*
X126951100Y-91313100D01*
X129460500Y-91343000D02*
X129476000Y-91343100D01*
X132891000Y-91343100D02*
X129476000Y-91343100D01*
X133110800Y-91289800D02*
X133168700Y-91239900D01*
X132967500Y-91343100D02*
X133110800Y-91289800D01*
X132891000Y-91343100D02*
X132967500Y-91343100D01*
X134556000Y-90043000D02*
X133168700Y-91239900D01*
G04 #@! TO.N,IN*
X132649000Y-116141500D02*
X133286000Y-116141500D01*
X132524000Y-116141500D02*
X132649000Y-116141500D01*
X131508000Y-116141500D02*
X132524000Y-116141500D01*
X131383000Y-116141500D02*
X131508000Y-116141500D01*
X130746000Y-116141500D02*
X131383000Y-116141500D01*
G04 #@! TO.N,ROMSEL*
X125203700Y-109178500D02*
X109030000Y-81788000D01*
X125226700Y-109215100D02*
X125235000Y-109226900D01*
X125211000Y-109190900D02*
X125226700Y-109215100D01*
X125203700Y-109178500D02*
X125211000Y-109190900D01*
X127546200Y-112513600D02*
X125235000Y-109226900D01*
X127557300Y-112529400D02*
X127546200Y-112513600D01*
X127569000Y-112566200D02*
X127557300Y-112529400D01*
X127569000Y-112585500D02*
X127569000Y-112566200D01*
X127569000Y-112710500D02*
X127569000Y-112585500D01*
X128206000Y-116141500D02*
X127569000Y-112710500D01*
X106490000Y-81788000D02*
X109030000Y-81788000D01*
G04 #@! TO.N,D0*
X125029000Y-112710500D02*
X125666000Y-116141500D01*
X125029000Y-112585500D02*
X125029000Y-112710500D01*
X125020300Y-112536900D02*
X125012000Y-112522500D01*
X125029000Y-112568900D02*
X125020300Y-112536900D01*
X125029000Y-112585500D02*
X125029000Y-112568900D01*
X111548900Y-89451200D02*
X125012000Y-112522500D01*
X110761400Y-88802300D02*
X110410500Y-88806500D01*
X111372000Y-89148100D02*
X110761400Y-88802300D01*
X111548900Y-89451200D02*
X111372000Y-89148100D01*
X107901100Y-88836400D02*
X110410500Y-88806500D01*
X107886000Y-88836500D02*
X107901100Y-88836400D01*
X106604200Y-89911400D02*
X106617700Y-90172200D01*
X106785200Y-89421400D02*
X106604200Y-89911400D01*
X107144900Y-89042600D02*
X106785200Y-89421400D01*
X107624800Y-88836500D02*
X107144900Y-89042600D01*
X107886000Y-88836500D02*
X107624800Y-88836500D01*
X106645500Y-90709500D02*
X106617700Y-90172200D01*
X106646100Y-90731500D02*
X106645500Y-90709500D01*
X106646100Y-90981500D02*
X106646100Y-90731500D01*
X106646100Y-91157600D02*
X106646100Y-90981500D01*
X106397100Y-91406600D02*
X106646100Y-91157600D01*
X106221000Y-91406600D02*
X106397100Y-91406600D01*
X104471000Y-91406600D02*
X106221000Y-91406600D01*
X104463400Y-91406500D02*
X104471000Y-91406600D01*
X102783100Y-91376300D02*
X104463400Y-91406500D01*
X102533500Y-91371800D02*
X102783100Y-91376300D01*
X102074800Y-91174500D02*
X102533500Y-91371800D01*
X101725000Y-90818300D02*
X102074800Y-91174500D01*
X101536000Y-90356100D02*
X101725000Y-90818300D01*
X101536000Y-90106500D02*
X101536000Y-90356100D01*
X98996000Y-89766200D02*
X98996000Y-90106500D01*
X99336300Y-89176800D02*
X98996000Y-89766200D01*
X99925700Y-88836500D02*
X99336300Y-89176800D01*
X100606300Y-88836500D02*
X99925700Y-88836500D01*
X101195700Y-89176800D02*
X100606300Y-88836500D01*
X101536000Y-89766200D02*
X101195700Y-89176800D01*
X101536000Y-90106500D02*
X101536000Y-89766200D01*
X98996000Y-97726500D02*
X98996000Y-90106500D01*
X98996000Y-97893700D02*
X98996000Y-97726500D01*
X98909500Y-98216700D02*
X98996000Y-97893700D01*
X98825900Y-98361500D02*
X98909500Y-98216700D01*
X97726000Y-100266500D02*
X98825900Y-98361500D01*
G04 #@! TO.N,D1*
X122461400Y-112507200D02*
X114763000Y-102926500D01*
X122474800Y-112523800D02*
X122461400Y-112507200D01*
X122489000Y-112564100D02*
X122474800Y-112523800D01*
X122489000Y-112585500D02*
X122489000Y-112564100D01*
X122489000Y-112710500D02*
X122489000Y-112585500D01*
X123126000Y-116141500D02*
X122489000Y-112710500D01*
G04 #@! TO.N,D2*
X119949000Y-112710500D02*
X120586000Y-116141500D01*
X119949000Y-112585500D02*
X119949000Y-112710500D01*
X119939200Y-112534000D02*
X119929900Y-112519000D01*
X119949000Y-112567900D02*
X119939200Y-112534000D01*
X119949000Y-112585500D02*
X119949000Y-112567900D01*
X114148900Y-103312100D02*
X119929900Y-112519000D01*
X114115600Y-103259100D02*
X114148900Y-103312100D01*
X114068200Y-103143200D02*
X114115600Y-103259100D01*
X114054800Y-103082100D02*
X114068200Y-103143200D01*
X112233100Y-94789500D02*
X114054800Y-103082100D01*
X112233100Y-94789500D02*
X112227300Y-94763900D01*
X111662400Y-92356400D02*
X112227300Y-94763900D01*
X110868200Y-91376500D02*
X110426000Y-91376500D01*
X111561400Y-91925900D02*
X110868200Y-91376500D01*
X111662400Y-92356400D02*
X111561400Y-91925900D01*
X107886000Y-91376500D02*
X110426000Y-91376500D01*
X107048200Y-91645800D02*
X106868400Y-91886600D01*
X107585500Y-91376500D02*
X107048200Y-91645800D01*
X107886000Y-91376500D02*
X107585500Y-91376500D01*
X101705100Y-98801100D02*
X106868400Y-91886600D01*
X101666400Y-98853000D02*
X101705100Y-98801100D01*
X101581800Y-98950800D02*
X101666400Y-98853000D01*
X101536000Y-98996600D02*
X101581800Y-98950800D01*
X100266000Y-100266500D02*
X101536000Y-98996600D01*
G04 #@! TO.N,D3*
X117409000Y-112710500D02*
X118046000Y-116141500D01*
X117409000Y-112585500D02*
X117409000Y-112710500D01*
X117360200Y-112478200D02*
X117320900Y-112466100D01*
X117409000Y-112544400D02*
X117360200Y-112478200D01*
X117409000Y-112585500D02*
X117409000Y-112544400D01*
X116393600Y-112179400D02*
X117320900Y-112466100D01*
X116368600Y-112172400D02*
X116360100Y-112170500D01*
X116385300Y-112176800D02*
X116368600Y-112172400D01*
X116393600Y-112179400D02*
X116385300Y-112176800D01*
X113939200Y-111633400D02*
X116360100Y-112170500D01*
X113702000Y-111607300D02*
X113622700Y-111616000D01*
X113861300Y-111616100D02*
X113702000Y-111607300D01*
X113939200Y-111633400D02*
X113861300Y-111616100D01*
X113499100Y-111629400D02*
X113622700Y-111616000D01*
X113494500Y-111629900D02*
X113499100Y-111629400D01*
X113239100Y-111658900D02*
X113494500Y-111629900D01*
X113136800Y-111670600D02*
X113239100Y-111658900D01*
X112934300Y-111633800D02*
X113136800Y-111670600D01*
X112842600Y-111587000D02*
X112934300Y-111633800D01*
X112740400Y-111534800D02*
X112842600Y-111587000D01*
X112578000Y-111465100D02*
X112521200Y-111449200D01*
X112687900Y-111508000D02*
X112578000Y-111465100D01*
X112740400Y-111534800D02*
X112687900Y-111508000D01*
X112129700Y-111340000D02*
X112521200Y-111449200D01*
X111866600Y-111266500D02*
X112129700Y-111340000D01*
X111568700Y-110808400D02*
X111866600Y-111266500D01*
X111608400Y-110538100D02*
X111568700Y-110808400D01*
X112029700Y-107665400D02*
X111608400Y-110538100D01*
X112064400Y-107325900D02*
X112066100Y-107212100D01*
X112046200Y-107552800D02*
X112064400Y-107325900D01*
X112029700Y-107665400D02*
X112046200Y-107552800D01*
X112115800Y-103832700D02*
X112066100Y-107212100D01*
X112053400Y-103507200D02*
X111990800Y-103414800D01*
X112117400Y-103721100D02*
X112053400Y-103507200D01*
X112115800Y-103832700D02*
X112117400Y-103721100D01*
X111498200Y-102688900D02*
X111990800Y-103414800D01*
X111392400Y-102562600D02*
X111349300Y-102528400D01*
X111467300Y-102643300D02*
X111392400Y-102562600D01*
X111498200Y-102688900D02*
X111467300Y-102643300D01*
X110220700Y-101631500D02*
X111349300Y-102528400D01*
X109531400Y-101336400D02*
X109279000Y-101368700D01*
X110021500Y-101473200D02*
X109531400Y-101336400D01*
X110220700Y-101631500D02*
X110021500Y-101473200D01*
X108047100Y-101526200D02*
X109279000Y-101368700D01*
X108007000Y-101531400D02*
X108047100Y-101526200D01*
X107926400Y-101536500D02*
X108007000Y-101531400D01*
X107886000Y-101536500D02*
X107926400Y-101536500D01*
X105346000Y-101536500D02*
X107886000Y-101536500D01*
X105178800Y-101536500D02*
X105346000Y-101536500D01*
X104855800Y-101450000D02*
X105178800Y-101536500D01*
X104711000Y-101366400D02*
X104855800Y-101450000D01*
X102806000Y-100266500D02*
X104711000Y-101366400D01*
G04 #@! TO.N,D4*
X111514300Y-107049200D02*
X111390800Y-103822000D01*
X111519300Y-107183300D02*
X111514300Y-107049200D01*
X111505000Y-107451300D02*
X111519300Y-107183300D01*
X111485600Y-107584100D02*
X111505000Y-107451300D01*
X111065500Y-110459100D02*
X111485600Y-107584100D01*
X111566700Y-111781900D02*
X112058200Y-111887100D01*
X110992800Y-110956500D02*
X111566700Y-111781900D01*
X111065500Y-110459100D02*
X110992800Y-110956500D01*
X112340400Y-111947400D02*
X112058200Y-111887100D01*
X112377900Y-111955400D02*
X112340400Y-111947400D01*
X112450600Y-111980200D02*
X112377900Y-111955400D01*
X112485200Y-111996700D02*
X112450600Y-111980200D01*
X112633600Y-112067600D02*
X112485200Y-111996700D01*
X113069700Y-112193000D02*
X113221800Y-112185400D01*
X112771000Y-112133200D02*
X113069700Y-112193000D01*
X112633600Y-112067600D02*
X112771000Y-112133200D01*
X113706600Y-112160900D02*
X113221800Y-112185400D01*
X113773200Y-112157600D02*
X113706600Y-112160900D01*
X113902100Y-112192000D02*
X113773200Y-112157600D01*
X113958200Y-112228100D02*
X113902100Y-112192000D01*
X114676300Y-112690600D02*
X113958200Y-112228100D01*
X114726000Y-112710500D02*
X114744000Y-112710500D01*
X114691400Y-112700400D02*
X114726000Y-112710500D01*
X114676300Y-112690600D02*
X114691400Y-112700400D01*
X114869000Y-112710500D02*
X114744000Y-112710500D01*
X115506000Y-116141500D02*
X114869000Y-112710500D01*
G04 #@! TO.N,D5*
X110753400Y-103657700D02*
X110898200Y-103096100D01*
X110730400Y-103816100D02*
X110734300Y-103869500D01*
X110740000Y-103709500D02*
X110730400Y-103816100D01*
X110753400Y-103657700D02*
X110740000Y-103709500D01*
X110960100Y-106989500D02*
X110734300Y-103869500D01*
X110969400Y-107118100D02*
X110960100Y-106989500D01*
X110960100Y-107375700D02*
X110969400Y-107118100D01*
X110941500Y-107503200D02*
X110960100Y-107375700D01*
X110522600Y-110380800D02*
X110941500Y-107503200D01*
X111795100Y-112425300D02*
X112170000Y-112457200D01*
X111131900Y-112069500D02*
X111795100Y-112425300D01*
X110664100Y-111479900D02*
X111131900Y-112069500D01*
X110468400Y-110753200D02*
X110664100Y-111479900D01*
X110522600Y-110380800D02*
X110468400Y-110753200D01*
X112214600Y-112460900D02*
X112170000Y-112457200D01*
X112263100Y-112465100D02*
X112214600Y-112460900D01*
X112329000Y-112536800D02*
X112263100Y-112465100D01*
X112329000Y-112585500D02*
X112329000Y-112536800D01*
X112329000Y-112710500D02*
X112329000Y-112585500D01*
X112966000Y-116141500D02*
X112329000Y-112710500D01*
G04 #@! TO.N,D6*
X109948800Y-112710500D02*
X110426000Y-116141500D01*
X109948800Y-112585500D02*
X109948800Y-112710500D01*
X109948800Y-110643100D02*
X109948800Y-112585500D01*
X109948800Y-110556300D02*
X109948800Y-110643100D01*
X109961500Y-110383000D02*
X109948800Y-110556300D01*
X109974100Y-110297100D02*
X109961500Y-110383000D01*
X110396700Y-107426900D02*
X109974100Y-110297100D01*
X110418400Y-107157800D02*
X110413800Y-107067800D01*
X110409800Y-107337800D02*
X110418400Y-107157800D01*
X110396700Y-107426900D02*
X110409800Y-107337800D01*
X110250900Y-103880300D02*
X110413800Y-107067800D01*
X110248800Y-103840300D02*
X110250900Y-103880300D01*
X110250300Y-103760300D02*
X110248800Y-103840300D01*
X110253900Y-103720500D02*
X110250300Y-103760300D01*
X110270900Y-103530200D02*
X110253900Y-103720500D01*
X110270700Y-103301500D02*
X110257100Y-103226400D01*
X110277700Y-103454100D02*
X110270700Y-103301500D01*
X110270900Y-103530200D02*
X110277700Y-103454100D01*
X110254700Y-103213300D02*
X110257100Y-103226400D01*
X110251600Y-103195100D02*
X110254700Y-103213300D01*
X110146400Y-102507300D02*
X110251600Y-103195100D01*
X109187900Y-101919900D02*
X109035500Y-102023800D01*
X109555200Y-101885400D02*
X109187900Y-101919900D01*
X109893400Y-102032700D02*
X109555200Y-101885400D01*
X110118500Y-102325000D02*
X109893400Y-102032700D01*
X110146400Y-102507300D02*
X110118500Y-102325000D01*
X107886000Y-102806500D02*
X109035500Y-102023800D01*
G04 #@! TO.N,D7*
X108523000Y-112710500D02*
X107886000Y-116141500D01*
X108648000Y-112710500D02*
X108523000Y-112710500D01*
X108761500Y-112654300D02*
X108770400Y-112610700D01*
X108692500Y-112710500D02*
X108761500Y-112654300D01*
X108648000Y-112710500D02*
X108692500Y-112710500D01*
X109839900Y-107418200D02*
X108770400Y-112610700D01*
X109867800Y-107196800D02*
X109865500Y-107122400D01*
X109854900Y-107345300D02*
X109867800Y-107196800D01*
X109839900Y-107418200D02*
X109854900Y-107345300D01*
X109767000Y-103871200D02*
X109865500Y-107122400D01*
X109765300Y-103813100D02*
X109767000Y-103871200D01*
X109770100Y-103697000D02*
X109765300Y-103813100D01*
X109776600Y-103639200D02*
X109770100Y-103697000D01*
X109792000Y-103503000D02*
X109776600Y-103639200D01*
X109763500Y-103201200D02*
X109714000Y-103111900D01*
X109803500Y-103401500D02*
X109763500Y-103201200D01*
X109792000Y-103503000D02*
X109803500Y-103401500D01*
X109438500Y-102615700D02*
X109714000Y-103111900D01*
G04 #@! TO.N,A14*
X105983000Y-112710500D02*
X105346000Y-116141500D01*
X105983000Y-112585500D02*
X105983000Y-112710500D01*
X105983000Y-112567500D02*
X105983000Y-112585500D01*
X105993100Y-112532900D02*
X105983000Y-112567500D01*
X106002900Y-112517800D02*
X105993100Y-112532900D01*
X109200500Y-107553700D02*
X106002900Y-112517800D01*
X109322000Y-107230700D02*
X109314500Y-107114600D01*
X109263500Y-107455900D02*
X109322000Y-107230700D01*
X109200500Y-107553700D02*
X109263500Y-107455900D01*
X109112800Y-103968100D02*
X109314500Y-107114600D01*
X109104200Y-103835100D02*
X109112800Y-103968100D01*
X109118200Y-103568900D02*
X109104200Y-103835100D01*
X109140700Y-103437500D02*
X109118200Y-103568900D01*
X109142100Y-103429400D02*
X109140700Y-103437500D01*
G04 #@! TO.N,A13*
X103443000Y-112710500D02*
X102806000Y-116141500D01*
X103443000Y-112585500D02*
X103443000Y-112710500D01*
X103443000Y-112544400D02*
X103443000Y-112585500D01*
X103491800Y-112478200D02*
X103443000Y-112544400D01*
X103531100Y-112466100D02*
X103491800Y-112478200D01*
X104458400Y-112179400D02*
X103531100Y-112466100D01*
X104461800Y-112178300D02*
X104458400Y-112179400D01*
X105330600Y-111917600D02*
X104461800Y-112178300D01*
X105924200Y-111179300D02*
X105758800Y-110876000D01*
X105661500Y-111818300D02*
X105924200Y-111179300D01*
X105330600Y-111917600D02*
X105661500Y-111818300D01*
X101690900Y-103414400D02*
X105758800Y-110876000D01*
X101614700Y-103274500D02*
X101690900Y-103414400D01*
X101536000Y-102965800D02*
X101614700Y-103274500D01*
X101536000Y-102806500D02*
X101536000Y-102965800D01*
X101536000Y-100266500D02*
X101536000Y-102806500D01*
X101536000Y-100027300D02*
X101536000Y-100266500D01*
X101709900Y-99581800D02*
X101536000Y-100027300D01*
X101872000Y-99405900D02*
X101709900Y-99581800D01*
X101971500Y-99297900D02*
X101872000Y-99405900D01*
X101971500Y-99297900D02*
X101999100Y-99267500D01*
X107886000Y-92646500D02*
X101999100Y-99267500D01*
G04 #@! TO.N,A12*
X99629000Y-112710500D02*
X100266000Y-116141500D01*
X99629000Y-112585500D02*
X99629000Y-112710500D01*
X99626100Y-112557300D02*
X99623300Y-112548200D01*
X99629000Y-112576000D02*
X99626100Y-112557300D01*
X99629000Y-112585500D02*
X99629000Y-112576000D01*
X95959900Y-100818100D02*
X99623300Y-112548200D01*
X95918100Y-100684200D02*
X95959900Y-100818100D01*
X95875800Y-100406800D02*
X95918100Y-100684200D01*
X95875800Y-100266500D02*
X95875800Y-100406800D01*
X95875800Y-92646500D02*
X95875800Y-100266500D01*
X95875800Y-92545400D02*
X95875800Y-92646500D01*
X95897800Y-92344500D02*
X95875800Y-92545400D01*
X95919700Y-92245800D02*
X95897800Y-92344500D01*
X96456800Y-89824900D02*
X95919700Y-92245800D01*
X96524000Y-89521900D02*
X96456800Y-89824900D01*
X96917700Y-89042000D02*
X96524000Y-89521900D01*
X97201700Y-88916800D02*
X96917700Y-89042000D01*
X100266000Y-87566500D02*
X97201700Y-88916800D01*
G04 #@! TO.N,F2*
X97089000Y-112710500D02*
X97726000Y-116141500D01*
X97089000Y-112585500D02*
X97089000Y-112710500D01*
X97088300Y-112572000D02*
X97087700Y-112567500D01*
X97089000Y-112581000D02*
X97088300Y-112572000D01*
X97089000Y-112585500D02*
X97089000Y-112581000D01*
X95350600Y-100611600D02*
X97087700Y-112567500D01*
X95338200Y-100525900D02*
X95350600Y-100611600D01*
X95325700Y-100353100D02*
X95338200Y-100525900D01*
X95325700Y-100266500D02*
X95325700Y-100353100D01*
X95325700Y-92646500D02*
X95325700Y-100266500D01*
X95325700Y-92515400D02*
X95325700Y-92646500D01*
X95354300Y-92254700D02*
X95325700Y-92515400D01*
X95382700Y-92126700D02*
X95354300Y-92254700D01*
X95919700Y-89705800D02*
X95382700Y-92126700D01*
X95933700Y-89642300D02*
X95919700Y-89705800D01*
X95970800Y-89517600D02*
X95933700Y-89642300D01*
X95993600Y-89456700D02*
X95970800Y-89517600D01*
X98870000Y-81788000D02*
X95993600Y-89456700D01*
D19*
G04 #@! TO.N,VCC*
X140102000Y-74718000D02*
X140652000Y-74168000D01*
X140102000Y-74968000D02*
X140102000Y-74718000D01*
X140102000Y-74994400D02*
X140102000Y-74968000D01*
X140090900Y-75046200D02*
X140102000Y-74994400D01*
X140080100Y-75070300D02*
X140090900Y-75046200D01*
X138431000Y-78747800D02*
X140080100Y-75070300D01*
X138431000Y-78747800D02*
X132715100Y-79363800D01*
X129466500Y-74917200D02*
X132715100Y-79363800D01*
X129347400Y-74754100D02*
X129466500Y-74917200D01*
X129222000Y-74370000D02*
X129347400Y-74754100D01*
X129222000Y-74168000D02*
X129222000Y-74370000D01*
X128239400Y-72906400D02*
X127992100Y-72898600D01*
X128691900Y-73106600D02*
X128239400Y-72906400D01*
X129036300Y-73462000D02*
X128691900Y-73106600D01*
X129222000Y-73920600D02*
X129036300Y-73462000D01*
X129222000Y-74168000D02*
X129222000Y-73920600D01*
X125454600Y-72818600D02*
X127992100Y-72898600D01*
X125454600Y-72818600D02*
X125412000Y-72817900D01*
X110770000Y-72817900D02*
X125412000Y-72817900D01*
X110770000Y-72817900D02*
X110744900Y-72818500D01*
X108972100Y-72899300D02*
X110744900Y-72818500D01*
X107760000Y-73658800D02*
X107760000Y-74168000D01*
X108463500Y-72922500D02*
X107760000Y-73658800D01*
X108972100Y-72899300D02*
X108463500Y-72922500D01*
X107760000Y-74297700D02*
X107760000Y-74168000D01*
X107707500Y-74551700D02*
X107760000Y-74297700D01*
X107656200Y-74670800D02*
X107707500Y-74551700D01*
X105475700Y-79728900D02*
X107656200Y-74670800D01*
X140652000Y-81788000D02*
X138431000Y-78747800D01*
X109051800Y-80438100D02*
X105846700Y-80386400D01*
X109236600Y-80441100D02*
X109051800Y-80438100D01*
X109591000Y-80546200D02*
X109236600Y-80441100D01*
X109747600Y-80644400D02*
X109591000Y-80546200D01*
X111570000Y-81788000D02*
X109747600Y-80644400D01*
X105398900Y-81138000D02*
X105846700Y-80386400D01*
X105216400Y-81637100D02*
X105220300Y-81815800D01*
X105307400Y-81291500D02*
X105216400Y-81637100D01*
X105398900Y-81138000D02*
X105307400Y-81291500D01*
X105346000Y-87566500D02*
X105220300Y-81815800D01*
X105475700Y-79728900D02*
X105846700Y-80386400D01*
X98721000Y-80526800D02*
X105475700Y-79728900D01*
X97600000Y-81305200D02*
X97600000Y-81788000D01*
X98241500Y-80583400D02*
X97600000Y-81305200D01*
X98721000Y-80526800D02*
X98241500Y-80583400D01*
X97600000Y-81883600D02*
X97600000Y-81788000D01*
X97571400Y-82072600D02*
X97600000Y-81883600D01*
X97543100Y-82163900D02*
X97571400Y-82072600D01*
X95313800Y-89359100D02*
X97543100Y-82163900D01*
X95271800Y-89508900D02*
X95260600Y-89559600D01*
X95298400Y-89408700D02*
X95271800Y-89508900D01*
X95313800Y-89359100D02*
X95298400Y-89408700D01*
X94723600Y-91980400D02*
X95260600Y-89559600D01*
X94650600Y-92478500D02*
X94650600Y-92646500D01*
X94687200Y-92144400D02*
X94650600Y-92478500D01*
X94723600Y-91980400D02*
X94687200Y-92144400D01*
X94650600Y-100266500D02*
X94650600Y-92646500D01*
X94650600Y-100272300D02*
X94650600Y-100266500D01*
X94674000Y-112585000D02*
X94650600Y-100272300D01*
X94674000Y-112585500D02*
X94674000Y-112585000D01*
X94674000Y-112835500D02*
X94674000Y-112585500D01*
X95186000Y-116141500D02*
X94674000Y-112835500D01*
X132016000Y-89168000D02*
X132016000Y-87503000D01*
X132016000Y-89418000D02*
X132016000Y-89168000D01*
X132016000Y-90043000D02*
X132016000Y-89418000D01*
X131870400Y-81274500D02*
X132715100Y-79363800D01*
X131756700Y-81697900D02*
X131763300Y-81844700D01*
X131811000Y-81408900D02*
X131756700Y-81697900D01*
X131870400Y-81274500D02*
X131811000Y-81408900D01*
X132016000Y-87503000D02*
X131763300Y-81844700D01*
X105346000Y-89231500D02*
X105346000Y-87566500D01*
X105346000Y-89481500D02*
X105346000Y-89231500D01*
X105346000Y-90106500D02*
X105346000Y-89481500D01*
D18*
G04 #@! TO.N,PD3*
X145961700Y-106186000D02*
X151905000Y-106672700D01*
X145961700Y-106186000D02*
X145924300Y-106183400D01*
X132919300Y-105502100D02*
X145924300Y-106183400D01*
X132765000Y-105494000D02*
X132919300Y-105502100D01*
X132489800Y-105353500D02*
X132765000Y-105494000D01*
X132392800Y-105233200D02*
X132489800Y-105353500D01*
X131027400Y-103540300D02*
X132392800Y-105233200D01*
X130890800Y-103370900D02*
X131027400Y-103540300D01*
X130746000Y-102960600D02*
X130890800Y-103370900D01*
X130746000Y-102743000D02*
X130746000Y-102960600D01*
X130659500Y-102252800D02*
X130575900Y-102108000D01*
X130746000Y-102575800D02*
X130659500Y-102252800D01*
X130746000Y-102743000D02*
X130746000Y-102575800D01*
X129476000Y-100203000D02*
X130575900Y-102108000D01*
G04 #@! TO.N,PD1*
X146031500Y-106753000D02*
X151684200Y-108149700D01*
X145864100Y-106729700D02*
X145807700Y-106733500D01*
X145976600Y-106739400D02*
X145864100Y-106729700D01*
X146031500Y-106753000D02*
X145976600Y-106739400D01*
X136410200Y-107381700D02*
X145807700Y-106733500D01*
X136358300Y-107385300D02*
X136410200Y-107381700D01*
X136254400Y-107377600D02*
X136358300Y-107385300D01*
X136203600Y-107366300D02*
X136254400Y-107377600D01*
X132562600Y-106560100D02*
X136203600Y-107366300D01*
X132426500Y-106530000D02*
X132562600Y-106560100D01*
X132166600Y-106429100D02*
X132426500Y-106530000D01*
X132045800Y-106359500D02*
X132166600Y-106429100D01*
X128552100Y-104346000D02*
X132045800Y-106359500D01*
X128434400Y-104278100D02*
X128552100Y-104346000D01*
X128221400Y-104109600D02*
X128434400Y-104278100D01*
X128128300Y-104010600D02*
X128221400Y-104109600D01*
X126936000Y-102743000D02*
X128128300Y-104010600D01*
G04 #@! TO.N,PA4*
X132740700Y-106034700D02*
X136360300Y-106658300D01*
X132627400Y-106015200D02*
X132740700Y-106034700D01*
X132411400Y-105936300D02*
X132627400Y-106015200D01*
X132312200Y-105878100D02*
X132411400Y-105936300D01*
X128833700Y-103838600D02*
X132312200Y-105878100D01*
X128542100Y-103667600D02*
X128833700Y-103838600D01*
X128206000Y-103081000D02*
X128542100Y-103667600D01*
X128206000Y-102743000D02*
X128206000Y-103081000D01*
X128206000Y-100203000D02*
X128206000Y-102743000D01*
X128206100Y-100187900D02*
X128206000Y-100203000D01*
X128236000Y-97678500D02*
X128206100Y-100187900D01*
X128236000Y-97678500D02*
X128236100Y-97663000D01*
X128236100Y-95123000D02*
X128236100Y-97663000D01*
X128142800Y-94608500D02*
X128052900Y-94457500D01*
X128236100Y-94947300D02*
X128142800Y-94608500D01*
X128236100Y-95123000D02*
X128236100Y-94947300D01*
X126936000Y-92583000D02*
X128052900Y-94457500D01*
G04 #@! TO.N,PA5*
X131942800Y-106925900D02*
X139812200Y-110642500D01*
X131826900Y-106867200D02*
X131942800Y-106925900D01*
X126317400Y-103886500D02*
X131826900Y-106867200D01*
X126234500Y-103841600D02*
X126317400Y-103886500D01*
X126083400Y-103729000D02*
X126234500Y-103841600D01*
X126016700Y-103662300D02*
X126083400Y-103729000D01*
X123476700Y-101122300D02*
X126016700Y-103662300D01*
X123293800Y-100939400D02*
X123476700Y-101122300D01*
X123095900Y-100461600D02*
X123293800Y-100939400D01*
X123095900Y-100203000D02*
X123095900Y-100461600D01*
X123095900Y-95123000D02*
X123095900Y-100203000D01*
X123095900Y-94947300D02*
X123095900Y-95123000D01*
X123189200Y-94608500D02*
X123095900Y-94947300D01*
X123279100Y-94457500D02*
X123189200Y-94608500D01*
X124396000Y-92583000D02*
X123279100Y-94457500D01*
G04 #@! TO.N,RD*
X133267900Y-102956600D02*
X132957200Y-104778000D01*
X133286000Y-102796700D02*
X133286000Y-102743000D01*
X133276900Y-102903700D02*
X133286000Y-102796700D01*
X133267900Y-102956600D02*
X133276900Y-102903700D01*
X133286000Y-100203000D02*
X133286000Y-102743000D01*
X133286000Y-100035800D02*
X133286000Y-100203000D01*
X133372500Y-99712800D02*
X133286000Y-100035800D01*
X133456100Y-99568000D02*
X133372500Y-99712800D01*
X134556000Y-97663000D02*
X133456100Y-99568000D01*
D19*
G04 #@! TO.N,GND*
X102806000Y-87566500D02*
X102806000Y-90106500D01*
X127234400Y-82931600D02*
X125412000Y-81788000D01*
X128008200Y-83164500D02*
X128274500Y-83099000D01*
X127466700Y-83077400D02*
X128008200Y-83164500D01*
X127234400Y-82931600D02*
X127466700Y-83077400D01*
X128733400Y-82986100D02*
X128274500Y-83099000D01*
X128932900Y-82937100D02*
X128733400Y-82986100D01*
X129332600Y-83031900D02*
X128932900Y-82937100D01*
X129644900Y-83298800D02*
X129332600Y-83031900D01*
X129800900Y-83678900D02*
X129644900Y-83298800D01*
X129783500Y-83883600D02*
X129800900Y-83678900D01*
X129476000Y-87503000D02*
X129783500Y-83883600D01*
X102806000Y-102806500D02*
X108590900Y-107161000D01*
X129476000Y-87503000D02*
X129476000Y-90043000D01*
X125412000Y-74168000D02*
X125412000Y-81788000D01*
X122872000Y-74168000D02*
X125412000Y-74168000D01*
D18*
G04 #@! TO.N,RW*
X110895000Y-74168000D02*
X111570000Y-74168000D01*
X110770000Y-74168000D02*
X110895000Y-74168000D01*
X109030000Y-74168000D02*
X110770000Y-74168000D01*
X121462700Y-94805400D02*
X122872000Y-81788000D01*
X121445600Y-95043400D02*
X121445600Y-95123000D01*
X121454100Y-94884500D02*
X121445600Y-95043400D01*
X121462700Y-94805400D02*
X121454100Y-94884500D01*
X121445600Y-100203000D02*
X121445600Y-95123000D01*
X121636300Y-101312900D02*
X121820800Y-101642900D01*
X121445600Y-100581100D02*
X121636300Y-101312900D01*
X121445600Y-100203000D02*
X121445600Y-100581100D01*
X125828100Y-108809800D02*
X121820800Y-101642900D01*
X112245000Y-74843000D02*
X111570000Y-74168000D01*
X112245000Y-74968000D02*
X112245000Y-74843000D01*
X112275900Y-75056300D02*
X112303000Y-75073500D01*
X112245000Y-75000100D02*
X112275900Y-75056300D01*
X112245000Y-74968000D02*
X112245000Y-75000100D01*
X122872000Y-81788000D02*
X112303000Y-75073500D01*
G04 #@! TO.N,A6*
X99237000Y-103601100D02*
X105122200Y-111223100D01*
X99102700Y-103427300D02*
X99237000Y-103601100D01*
X98963400Y-103010600D02*
X99102700Y-103427300D01*
X98966000Y-102791000D02*
X98963400Y-103010600D01*
X98995900Y-100281600D02*
X98966000Y-102791000D01*
X98995900Y-100281600D02*
X98996000Y-100266500D01*
X98996000Y-100013900D02*
X98996000Y-100266500D01*
X99189300Y-99547100D02*
X98996000Y-100013900D01*
X99546600Y-99189800D02*
X99189300Y-99547100D01*
X100013400Y-98996500D02*
X99546600Y-99189800D01*
X100266000Y-98996500D02*
X100013400Y-98996500D01*
X101532900Y-97992200D02*
X101535900Y-97741600D01*
X101337000Y-98453700D02*
X101532900Y-97992200D01*
X100980400Y-98806000D02*
X101337000Y-98453700D01*
X100516700Y-98996500D02*
X100980400Y-98806000D01*
X100266000Y-98996500D02*
X100516700Y-98996500D01*
X101566000Y-95201900D02*
X101535900Y-97741600D01*
X101566000Y-95201900D02*
X101566100Y-95186500D01*
X101566100Y-92646500D02*
X101566100Y-95186500D01*
X101472800Y-92132000D02*
X101382900Y-91981000D01*
X101566100Y-92470800D02*
X101472800Y-92132000D01*
X101566100Y-92646500D02*
X101566100Y-92470800D01*
X100266000Y-90106500D02*
X101382900Y-91981000D01*
G04 #@! TO.N,A7*
X96673600Y-101029800D02*
X104254200Y-111481000D01*
X96552800Y-100863400D02*
X96673600Y-101029800D01*
X96425900Y-100472100D02*
X96552800Y-100863400D01*
X96425900Y-100266500D02*
X96425900Y-100472100D01*
X96425900Y-92646500D02*
X96425900Y-100266500D01*
X96425900Y-92470800D02*
X96425900Y-92646500D01*
X96519200Y-92132000D02*
X96425900Y-92470800D01*
X96609100Y-91981000D02*
X96519200Y-92132000D01*
X97726000Y-90106500D02*
X96609100Y-91981000D01*
G04 #@! TO.N,A8*
X113216000Y-103836300D02*
X113160300Y-110964800D01*
X113203200Y-103590900D02*
X113189200Y-103510100D01*
X113216600Y-103754300D02*
X113203200Y-103590900D01*
X113216000Y-103836300D02*
X113216600Y-103754300D01*
X111707000Y-94964300D02*
X113189200Y-103510100D01*
X111603900Y-94623400D02*
X111542900Y-94521000D01*
X111686600Y-94846900D02*
X111603900Y-94623400D01*
X111707000Y-94964300D02*
X111686600Y-94846900D01*
X110426000Y-92646500D02*
X111542900Y-94521000D01*
G04 #@! TO.N,A9*
X112600900Y-107515800D02*
X112324200Y-110643100D01*
X112615000Y-107294200D02*
X112616200Y-107220200D01*
X112607400Y-107442100D02*
X112615000Y-107294200D01*
X112600900Y-107515800D02*
X112607400Y-107442100D01*
X112665900Y-103840800D02*
X112616200Y-107220200D01*
X112644700Y-103572900D02*
X112621000Y-103486300D01*
X112667200Y-103751000D02*
X112644700Y-103572900D01*
X112665900Y-103840800D02*
X112667200Y-103751000D01*
X111651200Y-99932200D02*
X112621000Y-103486300D01*
X110855500Y-98996500D02*
X110426000Y-98996500D01*
X111538100Y-99517900D02*
X110855500Y-98996500D01*
X111651200Y-99932200D02*
X111538100Y-99517900D01*
X110173400Y-98996500D02*
X110426000Y-98996500D01*
X109706600Y-98803200D02*
X110173400Y-98996500D01*
X109349300Y-98445900D02*
X109706600Y-98803200D01*
X109156000Y-97979100D02*
X109349300Y-98445900D01*
X109156000Y-97726500D02*
X109156000Y-97979100D01*
X109069500Y-97236300D02*
X108985900Y-97091500D01*
X109156000Y-97559300D02*
X109069500Y-97236300D01*
X109156000Y-97726500D02*
X109156000Y-97559300D01*
X107886000Y-95186500D02*
X108985900Y-97091500D01*
G04 #@! TO.N,CK*
X136162900Y-73094800D02*
X138112000Y-74168000D01*
X135822300Y-72962500D02*
X135700600Y-72949700D01*
X136055700Y-73035800D02*
X135822300Y-72962500D01*
X136162900Y-73094800D02*
X136055700Y-73035800D01*
X128164600Y-72154000D02*
X135700600Y-72949700D01*
X128005300Y-72142800D02*
X127952000Y-72142800D01*
X128111600Y-72148400D02*
X128005300Y-72142800D01*
X128164600Y-72154000D02*
X128111600Y-72148400D01*
X109030000Y-72142800D02*
X127952000Y-72142800D01*
X108870400Y-72148400D02*
X108817400Y-72154000D01*
X108976700Y-72142800D02*
X108870400Y-72148400D01*
X109030000Y-72142800D02*
X108976700Y-72142800D01*
X101281400Y-72949700D02*
X108817400Y-72154000D01*
X100328000Y-73479900D02*
X100228200Y-73845100D01*
X100904900Y-72989400D02*
X100328000Y-73479900D01*
X101281400Y-72949700D02*
X100904900Y-72989400D01*
X100051800Y-74490900D02*
X100228200Y-73845100D01*
X100034900Y-74552400D02*
X100051800Y-74490900D01*
X99988700Y-74671400D02*
X100034900Y-74552400D01*
X99959500Y-74728100D02*
X99988700Y-74671400D01*
X96330000Y-81788000D02*
X99959500Y-74728100D01*
G04 #@! TO.N,Net-(U1-Pad13)*
X134981100Y-80714800D02*
X133032000Y-81788000D01*
X135260600Y-80560900D02*
X134981100Y-80714800D01*
X135898600Y-80564900D02*
X135260600Y-80560900D01*
X136453700Y-80879600D02*
X135898600Y-80564900D01*
X136784800Y-81425000D02*
X136453700Y-80879600D01*
X136796300Y-81743800D02*
X136784800Y-81425000D01*
X137096000Y-90043000D02*
X136796300Y-81743800D01*
G04 #@! TO.N,Net-(U1-Pad14)*
X135854500Y-87438100D02*
X135572000Y-81788000D01*
X135856000Y-87518500D02*
X135854500Y-87438100D01*
X135826100Y-90027900D02*
X135856000Y-87518500D01*
X135826100Y-90027900D02*
X135826000Y-90043000D01*
X135826000Y-90210200D02*
X135826000Y-90043000D01*
X135739500Y-90533200D02*
X135826000Y-90210200D01*
X135655900Y-90678000D02*
X135739500Y-90533200D01*
X134556000Y-92583000D02*
X135655900Y-90678000D01*
G04 #@! TO.N,PRGOE*
X103950000Y-74168000D02*
X106490000Y-74168000D01*
X101410000Y-74168000D02*
X103950000Y-74168000D01*
G04 #@! TO.N,Net-(U4-Pad10)*
X103950000Y-81788000D02*
X101410000Y-81788000D01*
G04 #@! TD*
M02*
