M48
;DRILL file {KiCad (5.0.0)} date 07/25/18 17:19:36
;FORMAT={3:3/ absolute / metric / suppress leading zeros}
FMAT,2
METRIC,TZ
T1C0.400
T2C0.650
T3C0.800
T4C0.950
%
G90
G05
M71
T1
X104254Y-111481
X105122Y-111223
X108591Y-107161
X109142Y-103429
X109439Y-102616
X110898Y-103096
X111391Y-103822
X112324Y-110643
X113160Y-110965
X114763Y-102926
X125828Y-108810
X128937Y-83812
X132957Y-104778
X136360Y-106658
X139307Y-101231
X139812Y-110643
X145858Y-107457
X146802Y-110584
X151044Y-111985
X151684Y-108150
X151905Y-106673
X152345Y-105415
X152787Y-106451
T2
X145860Y-77407
X145860Y-78676
X145860Y-79947
T3
X96330Y-74168
X96330Y-81788
X98870Y-74168
X98870Y-81788
X101410Y-74168
X101410Y-81788
X103950Y-74168
X103950Y-81788
X106490Y-74168
X106490Y-81788
X109030Y-74168
X109030Y-81788
X111570Y-74168
X111570Y-81788
X122872Y-74168
X122872Y-81788
X125412Y-74168
X125412Y-81788
X127952Y-74168
X127952Y-81788
X130492Y-74168
X130492Y-81788
X133032Y-74168
X133032Y-81788
X135572Y-74168
X135572Y-81788
X138112Y-74168
X138112Y-81788
X140652Y-74168
X140652Y-81788
T4
X97726Y-90107
X97726Y-92647
X97726Y-95187
X97726Y-97727
X97726Y-100267
X100266Y-87567
X100266Y-90107
X100266Y-92647
X100266Y-95187
X100266Y-97727
X100266Y-100267
X100266Y-102807
X102806Y-87567
X102806Y-90107
X102806Y-100267
X102806Y-102807
X105346Y-87567
X105346Y-90107
X105346Y-100267
X105346Y-102807
X107886Y-87567
X107886Y-90107
X107886Y-90107
X107886Y-92647
X107886Y-95187
X107886Y-97727
X107886Y-100267
X107886Y-102807
X110426Y-90107
X110426Y-90107
X110426Y-92647
X110426Y-95187
X110426Y-97727
X110426Y-100267
X124396Y-90043
X124396Y-92583
X124396Y-95123
X124396Y-97663
X124396Y-100203
X126936Y-87503
X126936Y-90043
X126936Y-92583
X126936Y-95123
X126936Y-97663
X126936Y-100203
X126936Y-102743
X129476Y-87503
X129476Y-90043
X129476Y-100203
X129476Y-102743
X132016Y-87503
X132016Y-90043
X132016Y-100203
X132016Y-102743
X134556Y-87503
X134556Y-90043
X134556Y-90043
X134556Y-92583
X134556Y-95123
X134556Y-97663
X134556Y-100203
X134556Y-102743
X137096Y-90043
X137096Y-90043
X137096Y-92583
X137096Y-95123
X137096Y-97663
X137096Y-100203
T0
M30
